<svg xmlns="http://www.w3.org/2000/svg" viewBox="0 0 1169.82 522.71"><g data-name="Слой 2"><g data-name="Слой 1"><path d="M417.31 223.06c0-43.33 25-65.46 61.69-65.46 14.12 0 23.54 2.82 33.2 5.89v-35.32a6.94 6.94 0 017.06-7.07h25.67a6.94 6.94 0 017.06 7.07v150.69a6.93 6.93 0 01-7.06 7.06h-22.14a6.93 6.93 0 01-7.06-7.06v-3.53a67.41 67.41 0 01-40.26 12.95c-33.47 0-58.16-22.13-58.16-65.22zm94.89 27.07v-60c-9.66-3.06-19.08-4.71-25-4.71-21.19 0-29 11.54-29 37.68 0 25.9 7.77 37.43 26.6 37.43 8.56-.04 19.2-5.22 27.4-10.4zm68.04-118.2c0-8.24 4.94-13.18 13.19-13.18h14.36c8.24 0 13.18 4.94 13.18 13.18v4c0 8.24-4.94 13.18-13.18 13.18h-14.36c-8.25 0-13.19-4.94-13.19-13.18zm7.53 154a6.93 6.93 0 01-7.06-7.06v-109a6.93 6.93 0 017.06-7.06h25.67a6.93 6.93 0 017.06 7.06v109a6.93 6.93 0 01-7.06 7.06zM712.8 157.6c22.37 0 49.45 5.89 61.69 13V277c0 36-26.61 50.15-62.87 50.15-40.49 0-65-8.48-65-33a6.94 6.94 0 017.06-7.07h17.19a16.16 16.16 0 0113.19 6.12c4 4.95 12.71 7.77 24.72 7.77 18.13 0 25.9-5.65 25.9-24v-5.42a128.12 128.12 0 01-34.38 4.71c-34.38 0-58.16-22.13-58.16-58.86.02-37.67 24.75-59.8 70.66-59.8zm-3.06 90.89a107 107 0 0025-3.54V188a105.78 105.78 0 00-24.25-2.59c-19.55 0-27.32 11.54-27.32 32-.04 19.59 7.73 31.08 26.57 31.08zm93-116.56c0-8.24 5-13.18 13.19-13.18h14.36c8.24 0 13.19 4.94 13.19 13.18v4c0 8.24-5 13.18-13.19 13.18h-14.36c-8.24 0-13.19-4.94-13.19-13.18zm7.54 154a6.94 6.94 0 01-7.07-7.06v-109a6.94 6.94 0 017.07-7.06h25.66a6.94 6.94 0 017.07 7.06v109a6.94 6.94 0 01-7.07 7.06zm110.9 2.35c-33 0-49.45-16.48-49.45-51.8V128.17a6.94 6.94 0 017.07-7.07h25.66a6.94 6.94 0 017.06 7.07v38.38h32a6.93 6.93 0 017.06 7.06v13.66a6.93 6.93 0 01-7.06 7.06h-32v42.15c0 16 8.25 24.48 20.25 24.48 6.13 0 10.6-1.41 15.78-1.41h4.24a6.94 6.94 0 017.06 7.07v12.24c0 3.53-3.06 6.36-7.06 7.06-7.07 1.42-20.02 2.36-30.61 2.36zm93.71-96.78a16.12 16.12 0 01-13.19 6.13h-17.18a6.94 6.94 0 01-7.07-7.07c0-24.48 24.49-33 62.63-33 33.91 0 60.52 14.13 60.52 50.15v71.11a6.94 6.94 0 01-7.07 7.06h-22.13a6.93 6.93 0 01-7.06-7.06v-3.53c-10.6 7.53-23.55 12.95-41.68 12.95-30.84 0-54.39-13.89-54.39-40.5s23.55-40 54.39-40h38.14c0-18.36-7.77-24-23.54-24-9.65-.01-18.37 2.82-22.37 7.76zm45.91 60.28v-17.89h-35.31c-11.07 0-17.43 6.12-17.43 13.89 0 8.24 6.36 14.36 18.6 14.36 14.13 0 25.9-5.14 34.14-10.36zm75.11 34.14a6.93 6.93 0 01-7.06-7.06V128.17a6.94 6.94 0 017.06-7.07h25.67a6.94 6.94 0 017.06 7.07v150.69a6.93 6.93 0 01-7.06 7.06z" fill="#0a2849"/><path d="M552 368.05v147.16a6.93 6.93 0 01-7.06 7.06h-25.68a6.93 6.93 0 01-7.06-7.06v-35.32c-9.66 3.06-19.08 5.89-33.2 5.89-36.73 0-61.69-22.14-61.69-65.46 0-43.09 24.72-65.22 73-65.22 22.36 0 49.44 5.9 61.69 12.95zm-93.71 52.27c0 26.13 7.77 37.67 29 37.67 5.88 0 15.3-1.65 25-4.71v-67.81a105.81 105.81 0 00-24.26-2.59c-21.98 0-29.75 11.54-29.75 37.44zM620 430.44C620 450 629 458 641.93 458c11.54 0 22.37-8 30.84-16.48v-77a6.94 6.94 0 017.07-7.06h25.66a6.94 6.94 0 017.07 7.06v111.84a6.94 6.94 0 01-7.07 7.06h-25.66a6.94 6.94 0 01-7.07-7.06v-7.3c-10.83 9.18-22.6 16.72-40.26 16.72-30.61 0-52.27-16.25-52.27-55.34v-65.93a6.93 6.93 0 017.06-7.06H613a6.93 6.93 0 017.06 7.06zm154.25 2.12c1.65 18.84 10.13 27.08 29.44 27.08 9.88 0 18.6-2.83 22.6-7.77a16.11 16.11 0 0113.19-6.12h17.18a6.94 6.94 0 017.07 7.06c0 24.49-25.2 33-62.87 33-41.91 0-67.11-22.61-67.11-65.23 0-42.38 25.43-65.45 67.11-65.45 41.91 0 67.11 22.36 67.11 63.81v6.59a6.94 6.94 0 01-7.07 7.06zm-.25-24.25h53.45c-.71-17.66-9.19-27.08-26.61-27.08-16.93 0-25.84 9.42-26.84 27.08zm148.59 24.25c1.65 18.84 10.12 27.08 29.43 27.08 9.89 0 18.6-2.83 22.6-7.77a16.13 16.13 0 0113.19-6.12H1005a6.93 6.93 0 017.06 7.06c0 24.49-25.19 33-62.87 33-41.91 0-67.1-22.61-67.1-65.23 0-42.38 25.43-65.45 67.1-65.45 41.92 0 67.11 22.36 67.11 63.81v6.59a6.93 6.93 0 01-7.06 7.06zm-.24-24.25h53.45c-.7-17.66-9.18-27.08-26.61-27.08-16.95 0-25.9 9.42-26.84 27.08zm207.65 2.12c0-19.54-8.94-27.55-21.89-27.55-11.54 0-22.37 8-30.85 16.48v77a6.93 6.93 0 01-7.06 7.06h-25.67a6.93 6.93 0 01-7.06-7.06V364.51a6.93 6.93 0 017.06-7.06h25.67a6.93 6.93 0 017.06 7.06v7.3c10.83-9.18 22.61-16.71 40.26-16.71 30.61 0 52.28 16.24 52.28 55.33v65.93a6.94 6.94 0 01-7.07 7.06h-25.66a6.94 6.94 0 01-7.07-7.06z" fill="#ff0533"/><path d="M233.65 346.19v-53.13a4.74 4.74 0 00-2.36-4.1l-46-26.56a4.71 4.71 0 00-4.73 0l-46 26.56a4.75 4.75 0 00-2.37 4.1v53.13a4.75 4.75 0 002.37 4.1l46 26.56a4.71 4.71 0 004.73 0l46-26.56a4.74 4.74 0 002.36-4.1z" fill-rule="evenodd" fill="#ff0533"/><path d="M365.81 13.33a13.31 13.31 0 00-19.5-11.78l-52.45 27.6a13.3 13.3 0 00-7.11 11.77v128.7l-83-47.53a41.9 41.9 0 00-41.68 0l-141 80.72A41.94 41.94 0 000 239.2v160.86a41.94 41.94 0 0021.1 36.39l141 80.72a42 42 0 0041.68 0l71-40.52-55.71-54-1.47-1.3-11.3 6.47a47 47 0 01-46.75 0l-59.64-34.1a47 47 0 01-23.66-40.82v-66.54a47 47 0 0123.66-40.82l59.62-34.14a47 47 0 0146.75 0l59.63 34.14a47.05 47.05 0 0123.66 40.82v66.54a47.05 47.05 0 01-23.66 40.82l-11.08 6.34 8.94 34.35 9.42 36.22 1.57 6 3.18-1.82 66.78-38.38a42 42 0 0021.09-36.39V239.2c0-.54-.08-1.06-.1-1.6a15.12 15.12 0 00.1-1.53z" fill-rule="evenodd" fill="#0a2849"/></g></g></svg>